<svg xmlns="http://www.w3.org/2000/svg" viewBox="0 0 512 512">
  <g transform="{{transformation}}">
    <path
      d="M 276.506 38.653 C 251.084 38.653 226.657 44.164 203.86 54.93 C 174.909 68.413 150.391 89.677 132.93 116.455 C 114.927 144.047 105.427 175.983 105.427 209.005 L 105.427 232.257 L 74.668 291.062 C 68.787 302.371 68.515 313.951 73.944 322.998 C 79.372 332.044 89.776 337.201 102.532 337.201 L 105.427 337.201 L 105.427 383.432 C 105.427 408.493 125.784 428.849 150.843 428.849 C 151.477 428.849 152.02 428.849 152.651 428.757 L 184.226 424.052 L 184.226 455.807 C 184.226 456.261 184.226 456.805 184.317 457.257 C 185.222 468.475 194.27 476.798 205.759 476.798 C 207.117 476.798 208.473 476.708 209.92 476.435 L 374.126 447.304 C 386.066 445.223 395.476 434.006 395.476 421.882 L 395.476 330.506 C 428.137 298.573 446.682 254.512 446.682 208.823 C 446.682 115.01 370.324 38.653 276.506 38.653 Z"
      fill="{{color}}" transform="matrix(1, 0, 0, 1, -1.4210854715202004e-14, 0)" />
  </g>
</svg>
