<svg xmlns="http://www.w3.org/2000/svg" viewBox="0 0 512 512">
  <g transform="{{transformation}}">
    <path
      d="M258.374,20c-27.9,0-54.2,6.2-77.8,17.4c-62.2,28.9-105.4,91.9-105.4,165l0,0v24.3v5.9l-37.2,70.9
		  c-9.4,17.9-0.5,32.5,19.7,32.5h17.5v0.4v30.8v36.1c0,21.1,17.2,38.3,38.3,38.3l52.6-7.8l0.1,52.6v0.4l0,0c0.3,6.7,6,11.3,12.9,10
		  l189.4-33.6c7.2-1.3,12.9-8.2,12.9-15.5v-8.3v-6.6v-96.4c36.2-33.4,59.1-81.2,59.1-134.4C440.574,99.7,359.174,20,258.374,20z"
      fill="{{color}}" />
  </g>
</svg>
