<svg xmlns="http://www.w3.org/2000/svg" viewBox="0 0 512 512">
  <g transform="{{transformation}}">
    <path
      d="M 276.506 38.653 C 251.084 38.653 226.657 44.164 203.86 54.93 C 174.909 68.413 150.391 89.677 132.93 116.455 C 114.927 144.047 105.427 175.983 105.427 209.005 L 105.427 232.257 L 74.668 291.062 C 68.787 302.371 68.515 313.951 73.944 322.998 C 79.372 332.044 89.776 337.201 102.532 337.201 L 105.427 337.201 L 105.427 383.432 C 105.427 408.493 125.784 428.849 150.843 428.849 C 151.477 428.849 152.02 428.849 152.651 428.757 L 184.226 424.052 L 184.226 455.807 C 184.226 456.261 184.226 456.805 184.317 457.257 C 185.222 468.475 194.27 476.798 205.759 476.798 C 207.117 476.798 208.473 476.708 209.92 476.435 L 374.126 447.304 C 386.066 445.223 395.476 434.006 395.476 421.882 L 395.476 330.506 C 428.137 298.573 446.682 254.512 446.682 208.823 C 446.682 115.01 370.324 38.653 276.506 38.653 Z M 374.94 316.213 C 372.405 318.566 370.959 321.822 370.959 325.168 L 370.959 421.702 C 370.867 422.154 370.235 422.968 369.783 423.149 L 208.563 451.646 L 208.473 409.578 C 208.473 406.049 206.935 402.613 204.22 400.35 C 201.96 398.45 199.154 397.364 196.26 397.364 C 195.626 397.364 195.084 397.364 194.449 397.456 L 149.849 404.059 C 138.631 403.607 129.673 394.379 129.673 383.07 L 129.673 324.626 C 129.673 317.841 124.245 312.412 117.46 312.412 L 102.532 312.412 C 97.918 312.412 95.476 311.147 94.843 310.06 C 94.208 308.974 94.12 306.171 96.289 302.099 L 128.496 240.67 C 129.402 238.95 129.855 236.96 129.855 234.97 L 129.855 208.733 C 129.855 152.275 162.966 100.529 214.174 76.737 L 214.264 76.737 C 233.715 67.691 254.704 63.073 276.506 63.073 C 356.845 63.073 422.256 128.484 422.256 208.823 C 422.256 249.537 404.976 288.71 374.94 316.213 Z"
      fill="{{color}}" transform="matrix(1, 0, 0, 1, -1.4210854715202004e-14, 0)" />
  </g>
</svg>
