<svg xmlns="http://www.w3.org/2000/svg" viewBox="0 0 512 512">
  <g transform="{{transformation}}">
    <path
      d="M204.6,20.6c-46,3.2-86.2,19.6-113,46c-10.8,10.8-17.6,19.6-24.8,32.6C53.6,122.8,46,155.2,46,186.6c0,24.8,5.8,41.6,28.2,80.4c18.4,31.8,24.2,44,31,63.4c7.4,22,10.6,41.4,10.6,67c0,25.2-3.6,48.4-11,76c-1.8,6.4-3.2,12.2-3.2,12.8c0,0.6,1,2.2,2.4,3.4l2,1.8h108.4h108.4l2.2-2.4c2.4-2.2,2.4-2.4,2.4-19.2c0-18.4,1.6-33.8,4.4-41c1.6-4.2,2-4.6,5.8-5.8c2.2-0.6,11.8-1.6,21.2-2.2c28.2-1.6,39.8-3.8,51-9.4c6.4-3.4,13.6-10,16.4-15.6c2.8-5.4,5-16.2,4.2-21.2c-0.2-2.4-1.4-7-2.4-10.6l-2-6.2l4.8-4.6c5.8-5.8,6.6-8.8,3.8-15.4l-2-4.8l2.4-2.6c5.2-5.4,5.4-9.4,1.4-21.2c-1.6-4.8-2.6-8.8-2.4-9c0.2-0.2,2.8-0.8,5.6-1.2c14.2-2.4,26.4-12.8,26.4-22.6c0-4-3.6-11.2-11.2-22.6c-3.2-4.8-11.2-16.6-17.6-26.2c-6.4-9.4-12-18.2-12.2-19.6c-0.4-1.6,0.2-3.6,2.2-6.8c3.8-6,4.8-9.6,4.8-19.6c0-18-4.8-42.2-11.6-59c-19-47.2-61.4-80.2-122-95C271.2,21.6,233.8,18.6,204.6,20.6z"
      fill="{{color}}" transform="matrix(1, 0, 0, 1.053, 0, -0.529683)" />
  </g>
</svg>
